<svg width="1872" height="564" viewBox="0 0 1872 564" fill="none" xmlns="http://www.w3.org/2000/svg">
<path fill-rule="evenodd" clip-rule="evenodd" d="M564 282.05C564 437.533 437.433 564 281.95 564C126.467 564 0 437.533 0 282.05C0 126.567 126.467 0 281.95 0C437.433 0 564 126.567 564 282.05ZM450.54 282.05C450.54 189.101 374.899 113.46 281.95 113.46C189.001 113.46 113.36 189.101 113.36 282.05C113.36 374.999 189.001 450.64 281.95 450.64C374.899 450.64 450.54 374.999 450.54 282.05Z" fill="url(#paint0_linear_572_436)"/>
<path fill-rule="evenodd" clip-rule="evenodd" d="M548 282.05C548 428.157 430.278 547 285.451 547C140.722 547 23 428.157 23 282.05C23 135.943 140.722 17 285.451 17C430.278 17 548 135.943 548 282.05ZM468.464 282.05C468.464 180.184 386.355 97.2939 285.451 97.2939C184.546 97.2939 102.438 180.184 102.438 282.05C102.438 383.915 184.546 466.806 285.451 466.806C386.355 466.806 468.464 383.915 468.464 282.05Z" fill="url(#paint1_linear_572_436)"/>
<path d="M519 282.05C519 413.433 414.448 520 285.451 520C156.552 520 52 413.433 52 282.05C52 150.567 156.552 44 285.451 44C414.448 44 519 150.567 519 282.05Z" fill="url(#paint2_radial_572_436)"/>
<path d="M670.866 270L646.184 178.374L634.685 177.275V163.359H680.095V177.275L668.376 178.96L680.461 228.838L682.512 237.114H682.951L685.222 228.838L706.169 163.359H722.868L744.768 231.182L746.892 237.847H747.331L749.089 231.182L761.76 178.96L749.602 177.275V163.359H794.133V177.275L783.366 178.374L758.024 270H736.931L717.595 211.113L715.251 202.837H714.812L711.955 211.406L692.326 270H670.866ZM837.272 271.538C829.606 271.538 822.917 269.878 817.204 266.558C811.491 263.188 807.048 258.599 803.874 252.788C800.749 246.929 799.187 240.288 799.187 232.866V230.01C799.187 222.1 800.627 215.093 803.508 208.989C806.389 202.837 810.539 198.027 815.959 194.561C821.379 191.045 827.873 189.287 835.441 189.287C842.619 189.287 848.674 190.679 853.605 193.462C858.537 196.245 862.272 200.322 864.812 205.693C867.399 211.016 868.693 217.51 868.693 225.176V237.627H823.503L823.43 238.066C823.723 241.094 824.553 243.779 825.92 246.123C827.336 248.418 829.265 250.249 831.706 251.616C834.196 252.983 837.224 253.667 840.788 253.667C844.45 253.667 847.917 253.228 851.188 252.349C854.509 251.47 857.854 250.103 861.223 248.247L867.082 262.529C863.664 265.117 859.416 267.266 854.338 268.975C849.309 270.684 843.62 271.538 837.272 271.538ZM823.576 222.612H847.014V220.708C847.014 217.681 846.647 215.117 845.915 213.018C845.231 210.869 844.06 209.233 842.399 208.11C840.788 206.987 838.64 206.426 835.954 206.426C833.22 206.426 830.974 207.109 829.216 208.477C827.458 209.844 826.115 211.724 825.188 214.116C824.309 216.509 823.698 219.219 823.356 222.246L823.576 222.612ZM925.896 271.538C921.062 271.538 916.96 270.586 913.591 268.682C910.222 266.777 907.39 264.019 905.095 260.405L903.483 270H883.269V171.929L872.062 169.658V155.742H906.633V198.882C908.83 195.806 911.564 193.438 914.836 191.777C918.107 190.117 921.892 189.287 926.188 189.287C932.536 189.287 937.907 190.996 942.302 194.414C946.745 197.783 950.114 202.593 952.409 208.843C954.753 215.044 955.925 222.368 955.925 230.815V232.354C955.925 240.264 954.753 247.173 952.409 253.081C950.114 258.94 946.721 263.481 942.229 266.704C937.785 269.927 932.341 271.538 925.896 271.538ZM918.571 253.447C923.649 253.447 927.238 251.665 929.338 248.101C931.486 244.487 932.561 239.238 932.561 232.354V230.815C932.561 225.884 932.072 221.685 931.096 218.218C930.168 214.751 928.703 212.09 926.701 210.234C924.699 208.33 922.087 207.378 918.864 207.378C916.032 207.378 913.566 208.062 911.467 209.429C909.416 210.747 907.805 212.529 906.633 214.775V247.295C908 249.346 909.685 250.884 911.687 251.909C913.688 252.935 915.983 253.447 918.571 253.447ZM636.125 450V431.543L646.281 430.078L690.129 307.812H723.039L766.789 430.078L776.848 431.543V450H726.262V431.543L735.832 429.785L730.461 412.207H682.512L677.336 429.785L686.906 431.543V450H636.125ZM689.543 389.746H723.43L708.195 343.652L706.73 339.062H706.145L704.582 344.043L689.543 389.746ZM835.539 452.051C825.253 452.051 816.366 449.772 808.879 445.215C801.457 440.592 795.728 434.277 791.691 426.27C787.72 418.197 785.734 408.984 785.734 398.633V395.996C785.734 385.514 787.785 376.237 791.887 368.164C795.988 360.091 801.75 353.776 809.172 349.219C816.594 344.661 825.318 342.383 835.344 342.383C845.109 342.383 853.508 343.88 860.539 346.875C867.57 349.87 873.202 353.19 877.434 356.836L877.043 388.574H853.605L849.699 369.531C848.397 368.229 846.672 367.155 844.523 366.309C842.375 365.462 840.357 365.039 838.469 365.039C833.391 365.039 829.257 366.243 826.066 368.652C822.941 370.996 820.63 374.447 819.133 379.004C817.701 383.561 816.984 389.225 816.984 395.996V398.633C816.984 405.729 817.863 411.458 819.621 415.82C821.379 420.117 823.69 423.275 826.555 425.293C829.484 427.246 832.577 428.223 835.832 428.223C840.454 428.223 844.068 427.051 846.672 424.707C849.341 422.298 851.262 418.88 852.434 414.453H878.898L879.289 415.039C877.922 422.982 875.578 429.72 872.258 435.254C869.003 440.723 864.413 444.889 858.488 447.754C852.564 450.618 844.914 452.051 835.539 452.051ZM940.617 452.051C930.331 452.051 921.444 449.772 913.957 445.215C906.535 440.592 900.806 434.277 896.77 426.27C892.798 418.197 890.812 408.984 890.812 398.633V395.996C890.812 385.514 892.863 376.237 896.965 368.164C901.066 360.091 906.828 353.776 914.25 349.219C921.672 344.661 930.396 342.383 940.422 342.383C950.188 342.383 958.586 343.88 965.617 346.875C972.648 349.87 978.28 353.19 982.512 356.836L982.121 388.574H958.684L954.777 369.531C953.475 368.229 951.75 367.155 949.602 366.309C947.453 365.462 945.435 365.039 943.547 365.039C938.469 365.039 934.335 366.243 931.145 368.652C928.02 370.996 925.708 374.447 924.211 379.004C922.779 383.561 922.062 389.225 922.062 395.996V398.633C922.062 405.729 922.941 411.458 924.699 415.82C926.457 420.117 928.768 423.275 931.633 425.293C934.562 427.246 937.655 428.223 940.91 428.223C945.533 428.223 949.146 427.051 951.75 424.707C954.419 422.298 956.34 418.88 957.512 414.453H983.977L984.367 415.039C983 422.982 980.656 429.72 977.336 435.254C974.081 440.723 969.491 444.889 963.566 447.754C957.642 450.618 949.992 452.051 940.617 452.051ZM1047.36 452.051C1037.13 452.051 1028.21 449.837 1020.6 445.41C1012.98 440.918 1007.06 434.798 1002.82 427.051C998.658 419.238 996.574 410.384 996.574 400.488V396.68C996.574 386.133 998.495 376.79 1002.34 368.652C1006.18 360.449 1011.71 354.036 1018.94 349.414C1026.16 344.727 1034.82 342.383 1044.91 342.383C1054.48 342.383 1062.56 344.238 1069.13 347.949C1075.71 351.66 1080.69 357.096 1084.07 364.258C1087.52 371.354 1089.25 380.013 1089.25 390.234V406.836H1029L1028.9 407.422C1029.29 411.458 1030.4 415.039 1032.22 418.164C1034.11 421.224 1036.68 423.665 1039.93 425.488C1043.25 427.311 1047.29 428.223 1052.04 428.223C1056.93 428.223 1061.55 427.637 1065.91 426.465C1070.34 425.293 1074.8 423.47 1079.29 420.996L1087.1 440.039C1082.54 443.49 1076.88 446.354 1070.11 448.633C1063.4 450.911 1055.82 452.051 1047.36 452.051ZM1029.09 386.816H1060.34V384.277C1060.34 380.241 1059.86 376.823 1058.88 374.023C1057.97 371.159 1056.4 368.978 1054.19 367.48C1052.04 365.983 1049.18 365.234 1045.6 365.234C1041.95 365.234 1038.96 366.146 1036.61 367.969C1034.27 369.792 1032.48 372.298 1031.24 375.488C1030.07 378.678 1029.26 382.292 1028.8 386.328L1029.09 386.816ZM1147.94 452.051C1139.87 452.051 1132.32 451.302 1125.29 449.805C1118.32 448.307 1111.84 446.191 1105.85 443.457L1105.46 412.109H1126.85L1130.75 427.344C1132.58 428.32 1134.69 429.134 1137.1 429.785C1139.51 430.436 1142.31 430.762 1145.5 430.762C1151.49 430.762 1155.66 429.85 1158 428.027C1160.34 426.204 1161.52 423.958 1161.52 421.289C1161.52 418.685 1160.21 416.341 1157.61 414.258C1155.01 412.174 1149.7 410.384 1141.69 408.887C1129.26 406.348 1120.08 402.279 1114.15 396.68C1108.29 391.016 1105.36 383.854 1105.36 375.195C1105.36 369.336 1106.8 363.965 1109.66 359.082C1112.52 354.134 1117.02 350.163 1123.14 347.168C1129.32 344.108 1137.36 342.578 1147.26 342.578C1155.2 342.578 1162.62 343.327 1169.52 344.824C1176.42 346.257 1182.15 348.112 1186.71 350.391L1186.81 380.664H1165.52L1162.49 366.992C1160.86 365.82 1158.98 364.941 1156.83 364.355C1154.68 363.704 1152.27 363.379 1149.6 363.379C1144.91 363.379 1141.37 364.29 1138.96 366.113C1136.61 367.936 1135.44 370.247 1135.44 373.047C1135.44 374.674 1135.9 376.27 1136.81 377.832C1137.79 379.329 1139.61 380.762 1142.28 382.129C1144.95 383.431 1148.89 384.668 1154.09 385.84C1166.72 388.639 1176.03 392.48 1182.02 397.363C1188.08 402.246 1191.11 409.342 1191.11 418.652C1191.11 428.743 1187.46 436.849 1180.17 442.969C1172.88 449.023 1162.13 452.051 1147.94 452.051ZM1249.31 452.051C1241.24 452.051 1233.68 451.302 1226.65 449.805C1219.69 448.307 1213.21 446.191 1207.22 443.457L1206.83 412.109H1228.21L1232.12 427.344C1233.94 428.32 1236.06 429.134 1238.47 429.785C1240.88 430.436 1243.68 430.762 1246.87 430.762C1252.86 430.762 1257.02 429.85 1259.37 428.027C1261.71 426.204 1262.88 423.958 1262.88 421.289C1262.88 418.685 1261.58 416.341 1258.98 414.258C1256.37 412.174 1251.07 410.384 1243.06 408.887C1230.62 406.348 1221.44 402.279 1215.52 396.68C1209.66 391.016 1206.73 383.854 1206.73 375.195C1206.73 369.336 1208.16 363.965 1211.03 359.082C1213.89 354.134 1218.38 350.163 1224.5 347.168C1230.69 344.108 1238.73 342.578 1248.62 342.578C1256.57 342.578 1263.99 343.327 1270.89 344.824C1277.79 346.257 1283.52 348.112 1288.08 350.391L1288.18 380.664H1266.89L1263.86 366.992C1262.23 365.82 1260.34 364.941 1258.2 364.355C1256.05 363.704 1253.64 363.379 1250.97 363.379C1246.28 363.379 1242.73 364.29 1240.32 366.113C1237.98 367.936 1236.81 370.247 1236.81 373.047C1236.81 374.674 1237.26 376.27 1238.18 377.832C1239.15 379.329 1240.98 380.762 1243.64 382.129C1246.31 383.431 1250.25 384.668 1255.46 385.84C1268.09 388.639 1277.4 392.48 1283.39 397.363C1289.45 402.246 1292.47 409.342 1292.47 418.652C1292.47 428.743 1288.83 436.849 1281.54 442.969C1274.24 449.023 1263.5 452.051 1249.31 452.051ZM1303.7 450V431.543L1316.79 428.516V365.918L1301.85 362.891V344.336H1348.04V428.516L1361.12 431.543V450H1303.7ZM1315.81 323.145V297.656H1348.04V323.145H1315.81ZM1433.1 452.051C1426.65 452.051 1421.18 450.781 1416.69 448.242C1412.2 445.703 1408.42 442.025 1405.36 437.207L1403.21 450H1376.26V319.238L1361.32 316.211V297.656H1407.41V355.176C1410.34 351.074 1413.99 347.917 1418.35 345.703C1422.71 343.49 1427.76 342.383 1433.49 342.383C1441.95 342.383 1449.11 344.661 1454.97 349.219C1460.9 353.711 1465.39 360.124 1468.45 368.457C1471.57 376.725 1473.14 386.491 1473.14 397.754V399.805C1473.14 410.352 1471.57 419.564 1468.45 427.441C1465.39 435.254 1460.86 441.309 1454.88 445.605C1448.95 449.902 1441.69 452.051 1433.1 452.051ZM1423.33 427.93C1430.1 427.93 1434.89 425.553 1437.69 420.801C1440.55 415.983 1441.98 408.984 1441.98 399.805V397.754C1441.98 391.178 1441.33 385.579 1440.03 380.957C1438.79 376.335 1436.84 372.786 1434.17 370.312C1431.5 367.773 1428.02 366.504 1423.72 366.504C1419.95 366.504 1416.66 367.415 1413.86 369.238C1411.12 370.996 1408.98 373.372 1407.41 376.367V419.727C1409.24 422.461 1411.48 424.512 1414.15 425.879C1416.82 427.246 1419.88 427.93 1423.33 427.93ZM1482.61 450V431.543L1495.7 428.516V365.918L1480.75 362.891V344.336H1526.95V428.516L1540.03 431.543V450H1482.61ZM1494.72 323.145V297.656H1526.95V323.145H1494.72ZM1546.67 450V431.543L1559.86 428.516V319.238L1544.72 316.211V297.656H1591.11V428.516L1604.19 431.543V450H1546.67ZM1611.32 450V431.543L1624.41 428.516V365.918L1609.46 362.891V344.336H1655.66V428.516L1668.74 431.543V450H1611.32ZM1623.43 323.145V297.656H1655.66V323.145H1623.43ZM1719.91 452.148C1709.5 452.148 1701.52 449.349 1695.99 443.75C1690.45 438.086 1687.69 429.134 1687.69 416.895V366.113H1673.82V344.336H1687.69V318.359H1718.74V344.336H1737.2V366.113H1718.74V416.797C1718.74 420.573 1719.56 423.275 1721.18 424.902C1722.88 426.465 1725.15 427.246 1728.02 427.246C1729.45 427.246 1730.92 427.148 1732.41 426.953C1733.91 426.758 1735.28 426.562 1736.52 426.367L1738.86 449.316C1735.93 450.163 1732.84 450.846 1729.58 451.367C1726.39 451.888 1723.17 452.148 1719.91 452.148ZM1780.07 492.676C1777.4 492.676 1774.6 492.448 1771.67 491.992C1768.81 491.536 1765.98 490.918 1763.18 490.137L1766.79 467.48C1768.09 467.741 1769.39 467.936 1770.7 468.066C1772.06 468.262 1773.36 468.359 1774.6 468.359C1778.7 468.359 1782.28 467.415 1785.34 465.527C1788.47 463.704 1790.62 460.97 1791.79 457.324L1793.45 452.148L1758.78 364.844L1745.21 362.891V344.336H1804.78V362.891L1791.79 364.844L1807.22 409.668L1808.39 413.086H1808.98L1827.24 364.648L1814.84 362.891V344.336H1869.72V362.891L1857.51 364.648L1817.57 465.625C1815.68 470.443 1813.18 474.902 1810.05 479.004C1806.93 483.105 1802.92 486.393 1798.04 488.867C1793.22 491.406 1787.23 492.676 1780.07 492.676Z" fill="#24446B"/>
<path d="M282.93 176.813C274.84 176.813 266.931 174.413 260.204 169.919C253.477 165.424 248.234 159.035 245.138 151.56C242.042 144.086 241.232 135.861 242.81 127.926C244.388 119.991 248.284 112.702 254.005 106.981C259.726 101.26 267.015 97.3644 274.95 95.786C282.885 94.2076 291.11 95.0177 298.584 98.1138C306.059 101.21 312.448 106.453 316.942 113.18C321.437 119.907 323.836 127.816 323.836 135.906C323.825 146.752 319.511 157.15 311.842 164.819C304.174 172.487 293.776 176.801 282.93 176.813Z" fill="#FEFEFE"/>
<path d="M411.493 177.397L411.164 177.484L410.857 177.579C410.127 177.784 409.396 178.003 408.666 178.23C395.072 182.218 329.096 200.816 282.616 200.816C239.423 200.816 179.415 184.745 160.219 179.289C158.308 178.55 156.357 177.921 154.375 177.404C140.496 173.752 131 187.85 131 200.735C131 213.497 142.468 219.574 154.046 223.935V224.14L223.602 245.864C230.709 248.588 232.608 251.371 233.536 253.782C236.553 261.518 234.142 276.836 233.288 282.183L229.051 315.054L205.537 443.755C205.464 444.106 205.398 444.463 205.34 444.829L205.172 445.756C203.477 457.553 212.14 469 228.547 469C242.864 469 249.183 459.117 251.922 445.669C251.922 445.669 272.375 330.569 282.601 330.569C292.828 330.569 313.895 445.669 313.895 445.669C316.634 459.117 322.953 469 337.27 469C353.72 469 362.383 457.502 360.645 445.669C360.491 444.661 360.309 443.667 360.09 442.703L336.254 315.068L332.025 282.197C328.964 263.052 331.426 256.726 332.259 255.243C332.281 255.208 332.301 255.171 332.317 255.133C333.106 253.672 336.7 250.4 345.086 247.252L410.302 224.454C410.703 224.347 411.098 224.22 411.485 224.074C423.173 219.691 434.86 213.628 434.86 200.75C434.86 187.872 425.372 173.752 411.493 177.397Z" fill="#FEFEFE"/>
<defs>
<linearGradient id="paint0_linear_572_436" x1="-0.0120064" y1="0.0250109" x2="563.987" y2="0.0250109" gradientUnits="userSpaceOnUse">
<stop stop-color="#57585A"/>
<stop offset="0.188" stop-color="#BBBDBF"/>
<stop offset="0.461" stop-color="#FEFEFE"/>
<stop offset="0.691" stop-color="#808284"/>
<stop offset="1" stop-color="#403F40"/>
</linearGradient>
<linearGradient id="paint1_linear_572_436" x1="22.9683" y1="547.032" x2="22.9683" y2="17.013" gradientUnits="userSpaceOnUse">
<stop stop-color="#57585A"/>
<stop offset="0.188" stop-color="#BBBDBF"/>
<stop offset="0.364" stop-color="#F2F2F3"/>
<stop offset="0.691" stop-color="#808284"/>
<stop offset="1" stop-color="#403F40"/>
</linearGradient>
<radialGradient id="paint2_radial_572_436" cx="0" cy="0" r="1" gradientUnits="userSpaceOnUse" gradientTransform="translate(285.485 282.025) scale(265.036 270.143)">
<stop stop-color="#0973B7"/>
<stop offset="0.848" stop-color="#293A5B"/>
</radialGradient>
</defs>
</svg>
